# xmcd
#
# Track frame offsets:
#	150
#	52846
#	102654
#	165032
#	200494
#	236641
#	267558
#
# Disc length: 4393 seconds
# Revision: 0
# Processed by: cddbd v1.5.2PL0 Copyright (c) Steve Scherf et al.
# Submitted via: dBpowerAMP V12.0
#
DISCID=58112707
DTITLE=Kenny Drew Trio - At the Brewhouse (Traxdata-A) [dBP-LITE-FLAC@]
DYEAR=2000
DGENRE=Jazz
TTITLE0=In Your Own Sweet Way
TTITLE1=It Might As Well Be Spring
TTITLE2=Hush-A-Bye
TTITLE3=Bluesology
TTITLE4=It Could Happen To You
TTITLE5=You Don't Know What Love Is
TTITLE6=All Blues
EXTD=
EXTT0=
EXTT1=
EXTT2=
EXTT3=
EXTT4=
EXTT5=
EXTT6=
PLAYORDER=
